<mxfile host="app.diagrams.net" modified="2024-02-27T02:15:00.471Z" agent="Mozilla/5.0 (Windows NT 10.0; Win64; x64) AppleWebKit/537.36 (KHTML, like Gecko) Chrome/117.0.0.0 Safari/537.36" version="23.1.7" etag="kpIyj8P7o9PPg8djbQ8s" type="github">
  <diagram name="第 1 页" id="R6zLTxlhE3c4GDpfNxEp">
    <mxGraphModel>
      <root>
        <mxCell id="0" />
        <mxCell id="1" parent="0" />
      </root>
    </mxGraphModel>
  </diagram>
</mxfile>
